<svg xmlns="http://www.w3.org/2000/svg" xmlns:xlink="http://www.w3.org/1999/xlink" width="1920" zoomAndPan="magnify" viewBox="0 0 1440 809.999993" height="1080" preserveAspectRatio="xMidYMid meet" version="1.2"><defs/><g id="b202e1e43f"><g style="fill:#000000;fill-opacity:1;"><g transform="translate(322.139961, 444.476315)"><path style="stroke:none" d="M 54.375 -125.46875 C 61.039062 -125.46875 67.5625 -124.5 73.9375 -122.5625 C 80.3125 -120.625 85.039062 -118.707031 88.125 -116.8125 L 92.609375 -113.828125 L 81.265625 -91.421875 C 80.367188 -92.015625 79.125 -92.785156 77.53125 -93.734375 C 75.9375 -94.679688 72.945312 -95.953125 68.5625 -97.546875 C 64.175781 -99.140625 60.09375 -99.9375 56.3125 -99.9375 C 51.632812 -99.9375 48.023438 -98.9375 45.484375 -96.9375 C 42.941406 -94.945312 41.671875 -92.257812 41.671875 -88.875 C 41.671875 -87.1875 42.269531 -85.617188 43.46875 -84.171875 C 44.664062 -82.722656 46.707031 -81.175781 49.59375 -79.53125 C 52.476562 -77.894531 55.015625 -76.578125 57.203125 -75.578125 C 59.398438 -74.585938 62.789062 -73.097656 67.375 -71.109375 C 75.332031 -67.722656 82.125 -63.113281 87.75 -57.28125 C 93.382812 -51.457031 96.203125 -44.863281 96.203125 -37.5 C 96.203125 -30.425781 94.929688 -24.25 92.390625 -18.96875 C 89.847656 -13.6875 86.359375 -9.550781 81.921875 -6.5625 C 77.492188 -3.582031 72.59375 -1.375 67.21875 0.0625 C 61.84375 1.507812 56.015625 2.234375 49.734375 2.234375 C 44.359375 2.234375 39.082031 1.6875 33.90625 0.59375 C 28.726562 -0.5 24.394531 -1.863281 20.90625 -3.5 C 17.425781 -5.144531 14.289062 -6.765625 11.5 -8.359375 C 8.707031 -9.953125 6.664062 -11.296875 5.375 -12.390625 L 3.4375 -14.046875 L 17.484375 -37.640625 C 18.671875 -36.648438 20.3125 -35.378906 22.40625 -33.828125 C 24.5 -32.285156 28.207031 -30.21875 33.53125 -27.625 C 38.863281 -25.039062 43.570312 -23.75 47.65625 -23.75 C 59.5 -23.75 65.421875 -27.78125 65.421875 -35.84375 C 65.421875 -37.539062 65 -39.109375 64.15625 -40.546875 C 63.3125 -41.992188 61.816406 -43.4375 59.671875 -44.875 C 57.535156 -46.320312 55.644531 -47.46875 54 -48.3125 C 52.351562 -49.164062 49.660156 -50.460938 45.921875 -52.203125 C 42.191406 -53.953125 39.429688 -55.273438 37.640625 -56.171875 C 30.171875 -59.847656 24.394531 -64.445312 20.3125 -69.96875 C 16.226562 -75.5 14.1875 -81.453125 14.1875 -87.828125 C 14.1875 -98.878906 18.269531 -107.914062 26.4375 -114.9375 C 34.601562 -121.957031 43.914062 -125.46875 54.375 -125.46875 Z M 54.375 -125.46875 "/></g></g><g style="fill:#000000;fill-opacity:1;"><g transform="translate(415.046751, 444.476315)"><path style="stroke:none" d="M 103.671875 -123.234375 L 103.671875 -43.765625 C 103.671875 -28.628906 99.585938 -17.175781 91.421875 -9.40625 C 83.253906 -1.644531 71.300781 2.234375 55.5625 2.234375 C 39.832031 2.234375 27.882812 -1.644531 19.71875 -9.40625 C 11.550781 -17.175781 7.46875 -28.628906 7.46875 -43.765625 L 7.46875 -123.234375 L 35.546875 -123.234375 L 35.546875 -51.984375 C 35.546875 -42.023438 37.113281 -35.101562 40.25 -31.21875 C 43.394531 -27.332031 48.5 -25.390625 55.5625 -25.390625 C 62.632812 -25.390625 67.738281 -27.332031 70.875 -31.21875 C 74.007812 -35.101562 75.578125 -42.023438 75.578125 -51.984375 L 75.578125 -123.234375 Z M 103.671875 -123.234375 "/></g></g><g style="fill:#000000;fill-opacity:1;"><g transform="translate(518.708116, 444.476315)"><path style="stroke:none" d="M 110.84375 0 L 105.015625 -73.046875 L 104.265625 -73.046875 L 79.015625 -0.75 L 62.296875 -0.75 L 37.046875 -73.046875 L 36.296875 -73.046875 L 30.46875 0 L 2.390625 0 L 13.4375 -123.234375 L 43.3125 -123.234375 L 70.65625 -52.125 L 97.984375 -123.234375 L 127.859375 -123.234375 L 138.921875 0 Z M 110.84375 0 "/></g></g><g style="fill:#ffffff;fill-opacity:1;"><g transform="translate(652.54404, 444.476315)"><path style="stroke:none" d="M 13.4375 -76.625 L 13.4375 -105.15625 L 39.890625 -105.15625 L 39.890625 -76.625 L 56.015625 -76.625 L 56.015625 -56.46875 L 39.890625 -56.46875 L 39.890625 -32.109375 C 39.890625 -25.046875 41.878906 -21.515625 45.859375 -21.515625 C 46.859375 -21.515625 47.90625 -21.710938 49 -22.109375 C 50.09375 -22.503906 50.9375 -22.898438 51.53125 -23.296875 L 52.4375 -23.90625 L 59 -2.546875 C 53.320312 0.640625 46.847656 2.234375 39.578125 2.234375 C 34.597656 2.234375 30.316406 1.363281 26.734375 -0.375 C 23.148438 -2.113281 20.4375 -4.453125 18.59375 -7.390625 C 16.75 -10.328125 15.425781 -13.414062 14.625 -16.65625 C 13.832031 -19.894531 13.4375 -23.351562 13.4375 -27.03125 L 13.4375 -56.46875 L 2.390625 -56.46875 L 2.390625 -76.625 Z M 13.4375 -76.625 "/></g></g><g style="fill:#ffffff;fill-opacity:1;"><g transform="translate(704.075595, 444.476315)"><path style="stroke:none" d="M 8.96875 0 L 8.96875 -128.46875 L 35.40625 -128.46875 L 35.40625 -68.5625 L 35.703125 -68.5625 C 42.566406 -75.4375 49.882812 -78.875 57.65625 -78.875 C 61.4375 -78.875 65.191406 -78.375 68.921875 -77.375 C 72.660156 -76.375 76.25 -74.828125 79.6875 -72.734375 C 83.125 -70.648438 85.910156 -67.691406 88.046875 -63.859375 C 90.191406 -60.023438 91.265625 -55.566406 91.265625 -50.484375 L 91.265625 0 L 64.828125 0 L 64.828125 -43.3125 C 64.828125 -47.300781 63.554688 -50.785156 61.015625 -53.765625 C 58.472656 -56.753906 55.164062 -58.25 51.09375 -58.25 C 47.101562 -58.25 43.488281 -56.707031 40.25 -53.625 C 37.019531 -50.539062 35.40625 -47.101562 35.40625 -43.3125 L 35.40625 0 Z M 8.96875 0 "/></g></g><g style="fill:#ffffff;fill-opacity:1;"><g transform="translate(795.339321, 444.476315)"><path style="stroke:none" d="M 11.5 -119.34375 C 14.582031 -122.4375 18.265625 -123.984375 22.546875 -123.984375 C 26.835938 -123.984375 30.523438 -122.4375 33.609375 -119.34375 C 36.691406 -116.257812 38.234375 -112.578125 38.234375 -108.296875 C 38.234375 -104.015625 36.691406 -100.328125 33.609375 -97.234375 C 30.523438 -94.148438 26.835938 -92.609375 22.546875 -92.609375 C 18.265625 -92.609375 14.582031 -94.148438 11.5 -97.234375 C 8.414062 -100.328125 6.875 -104.015625 6.875 -108.296875 C 6.875 -112.578125 8.414062 -116.257812 11.5 -119.34375 Z M 8.96875 -76.625 L 8.96875 0 L 35.40625 0 L 35.40625 -76.625 Z M 8.96875 -76.625 "/></g></g><g style="fill:#ffffff;fill-opacity:1;"><g transform="translate(832.979553, 444.476315)"><path style="stroke:none" d="M 8.96875 0 L 8.96875 -76.625 L 35.40625 -76.625 L 35.40625 -68.5625 L 35.703125 -68.5625 C 42.566406 -75.4375 49.882812 -78.875 57.65625 -78.875 C 61.4375 -78.875 65.191406 -78.375 68.921875 -77.375 C 72.660156 -76.375 76.25 -74.828125 79.6875 -72.734375 C 83.125 -70.648438 85.910156 -67.691406 88.046875 -63.859375 C 90.191406 -60.023438 91.265625 -55.566406 91.265625 -50.484375 L 91.265625 0 L 64.828125 0 L 64.828125 -43.3125 C 64.828125 -47.300781 63.554688 -50.785156 61.015625 -53.765625 C 58.472656 -56.753906 55.164062 -58.25 51.09375 -58.25 C 47.101562 -58.25 43.488281 -56.707031 40.25 -53.625 C 37.019531 -50.539062 35.40625 -47.101562 35.40625 -43.3125 L 35.40625 0 Z M 8.96875 0 "/></g></g><g style="fill:#ffffff;fill-opacity:1;"><g transform="translate(924.243279, 444.476315)"><path style="stroke:none" d="M 5.53125 18.828125 L 27.1875 8.21875 C 31.164062 14.789062 38.085938 18.078125 47.953125 18.078125 C 52.535156 18.078125 56.789062 16.609375 60.71875 13.671875 C 64.65625 10.734375 66.625 6.226562 66.625 0.15625 L 66.625 -5.53125 C 61.9375 -0.351562 53.570312 2.234375 41.53125 2.234375 C 30.476562 2.234375 21.363281 -1.671875 14.1875 -9.484375 C 7.019531 -17.304688 3.4375 -26.890625 3.4375 -38.234375 C 3.4375 -49.585938 7.019531 -59.195312 14.1875 -67.0625 C 21.363281 -74.9375 30.476562 -78.875 41.53125 -78.875 C 51.382812 -78.875 59.597656 -75.835938 66.171875 -69.765625 L 66.625 -69.765625 L 66.625 -76.625 L 93.0625 -76.625 L 93.0625 2.09375 C 93.0625 14.539062 88.925781 24.148438 80.65625 30.921875 C 72.394531 37.691406 61.492188 41.078125 47.953125 41.078125 C 26.046875 41.078125 11.90625 33.660156 5.53125 18.828125 Z M 36.671875 -51.234375 C 33.234375 -47.847656 31.515625 -43.515625 31.515625 -38.234375 C 31.515625 -32.960938 33.15625 -28.65625 36.4375 -25.3125 C 39.726562 -21.976562 44.0625 -20.3125 49.4375 -20.3125 C 54.613281 -20.3125 58.867188 -22.003906 62.203125 -25.390625 C 65.546875 -28.773438 67.21875 -33.054688 67.21875 -38.234375 C 67.21875 -43.515625 65.5 -47.847656 62.0625 -51.234375 C 58.625 -54.617188 54.414062 -56.3125 49.4375 -56.3125 C 44.363281 -56.3125 40.109375 -54.617188 36.671875 -51.234375 Z M 36.671875 -51.234375 "/></g></g><g style="fill:#fa6910;fill-opacity:1;"><g transform="translate(1018.815923, 444.476315)"><path style="stroke:none" d="M 60.046875 -116.21875 L 63.9375 -104.265625 L 46.90625 -98.140625 L 56.765625 -83.34375 L 46.90625 -76.625 L 36.453125 -90.21875 L 25.984375 -76.625 L 16.125 -83.34375 L 25.984375 -98.140625 L 8.96875 -104.265625 L 12.84375 -116.21875 L 29.875 -110.984375 L 30.03125 -128.46875 L 42.875 -128.46875 L 43.015625 -110.984375 Z M 60.046875 -116.21875 "/></g></g><g style="fill:#ffffff;fill-opacity:1;"><g transform="translate(337.52996, 444.476315)"><path style="stroke:none" d="M 54.375 -125.46875 C 61.039062 -125.46875 67.5625 -124.5 73.9375 -122.5625 C 80.3125 -120.625 85.039062 -118.707031 88.125 -116.8125 L 92.609375 -113.828125 L 81.265625 -91.421875 C 80.367188 -92.015625 79.125 -92.785156 77.53125 -93.734375 C 75.9375 -94.679688 72.945312 -95.953125 68.5625 -97.546875 C 64.175781 -99.140625 60.09375 -99.9375 56.3125 -99.9375 C 51.632812 -99.9375 48.023438 -98.9375 45.484375 -96.9375 C 42.941406 -94.945312 41.671875 -92.257812 41.671875 -88.875 C 41.671875 -87.1875 42.269531 -85.617188 43.46875 -84.171875 C 44.664062 -82.722656 46.707031 -81.175781 49.59375 -79.53125 C 52.476562 -77.894531 55.015625 -76.578125 57.203125 -75.578125 C 59.398438 -74.585938 62.789062 -73.097656 67.375 -71.109375 C 75.332031 -67.722656 82.125 -63.113281 87.75 -57.28125 C 93.382812 -51.457031 96.203125 -44.863281 96.203125 -37.5 C 96.203125 -30.425781 94.929688 -24.25 92.390625 -18.96875 C 89.847656 -13.6875 86.359375 -9.550781 81.921875 -6.5625 C 77.492188 -3.582031 72.59375 -1.375 67.21875 0.0625 C 61.84375 1.507812 56.015625 2.234375 49.734375 2.234375 C 44.359375 2.234375 39.082031 1.6875 33.90625 0.59375 C 28.726562 -0.5 24.394531 -1.863281 20.90625 -3.5 C 17.425781 -5.144531 14.289062 -6.765625 11.5 -8.359375 C 8.707031 -9.953125 6.664062 -11.296875 5.375 -12.390625 L 3.4375 -14.046875 L 17.484375 -37.640625 C 18.671875 -36.648438 20.3125 -35.378906 22.40625 -33.828125 C 24.5 -32.285156 28.207031 -30.21875 33.53125 -27.625 C 38.863281 -25.039062 43.570312 -23.75 47.65625 -23.75 C 59.5 -23.75 65.421875 -27.78125 65.421875 -35.84375 C 65.421875 -37.539062 65 -39.109375 64.15625 -40.546875 C 63.3125 -41.992188 61.816406 -43.4375 59.671875 -44.875 C 57.535156 -46.320312 55.644531 -47.46875 54 -48.3125 C 52.351562 -49.164062 49.660156 -50.460938 45.921875 -52.203125 C 42.191406 -53.953125 39.429688 -55.273438 37.640625 -56.171875 C 30.171875 -59.847656 24.394531 -64.445312 20.3125 -69.96875 C 16.226562 -75.5 14.1875 -81.453125 14.1875 -87.828125 C 14.1875 -98.878906 18.269531 -107.914062 26.4375 -114.9375 C 34.601562 -121.957031 43.914062 -125.46875 54.375 -125.46875 Z M 54.375 -125.46875 "/></g></g><g style="fill:#ffffff;fill-opacity:1;"><g transform="translate(430.43675, 444.476315)"><path style="stroke:none" d="M 103.671875 -123.234375 L 103.671875 -43.765625 C 103.671875 -28.628906 99.585938 -17.175781 91.421875 -9.40625 C 83.253906 -1.644531 71.300781 2.234375 55.5625 2.234375 C 39.832031 2.234375 27.882812 -1.644531 19.71875 -9.40625 C 11.550781 -17.175781 7.46875 -28.628906 7.46875 -43.765625 L 7.46875 -123.234375 L 35.546875 -123.234375 L 35.546875 -51.984375 C 35.546875 -42.023438 37.113281 -35.101562 40.25 -31.21875 C 43.394531 -27.332031 48.5 -25.390625 55.5625 -25.390625 C 62.632812 -25.390625 67.738281 -27.332031 70.875 -31.21875 C 74.007812 -35.101562 75.578125 -42.023438 75.578125 -51.984375 L 75.578125 -123.234375 Z M 103.671875 -123.234375 "/></g></g><g style="fill:#fa6910;fill-opacity:1;"><g transform="translate(534.10684, 444.476315)"><path style="stroke:none" d="M 110.84375 0 L 105.015625 -73.046875 L 104.265625 -73.046875 L 79.015625 -0.75 L 62.296875 -0.75 L 37.046875 -73.046875 L 36.296875 -73.046875 L 30.46875 0 L 2.390625 0 L 13.4375 -123.234375 L 43.3125 -123.234375 L 70.65625 -52.125 L 97.984375 -123.234375 L 127.859375 -123.234375 L 138.921875 0 Z M 110.84375 0 "/></g></g><g style="fill:#000000;fill-opacity:1;"><g transform="translate(667.959343, 444.476315)"><path style="stroke:none" d="M 13.4375 -76.625 L 13.4375 -105.15625 L 39.890625 -105.15625 L 39.890625 -76.625 L 56.015625 -76.625 L 56.015625 -56.46875 L 39.890625 -56.46875 L 39.890625 -32.109375 C 39.890625 -25.046875 41.878906 -21.515625 45.859375 -21.515625 C 46.859375 -21.515625 47.90625 -21.710938 49 -22.109375 C 50.09375 -22.503906 50.9375 -22.898438 51.53125 -23.296875 L 52.4375 -23.90625 L 59 -2.546875 C 53.320312 0.640625 46.847656 2.234375 39.578125 2.234375 C 34.597656 2.234375 30.316406 1.363281 26.734375 -0.375 C 23.148438 -2.113281 20.4375 -4.453125 18.59375 -7.390625 C 16.75 -10.328125 15.425781 -13.414062 14.625 -16.65625 C 13.832031 -19.894531 13.4375 -23.351562 13.4375 -27.03125 L 13.4375 -56.46875 L 2.390625 -56.46875 L 2.390625 -76.625 Z M 13.4375 -76.625 "/></g></g><g style="fill:#000000;fill-opacity:1;"><g transform="translate(719.490898, 444.476315)"><path style="stroke:none" d="M 8.96875 0 L 8.96875 -128.46875 L 35.40625 -128.46875 L 35.40625 -68.5625 L 35.703125 -68.5625 C 42.566406 -75.4375 49.882812 -78.875 57.65625 -78.875 C 61.4375 -78.875 65.191406 -78.375 68.921875 -77.375 C 72.660156 -76.375 76.25 -74.828125 79.6875 -72.734375 C 83.125 -70.648438 85.910156 -67.691406 88.046875 -63.859375 C 90.191406 -60.023438 91.265625 -55.566406 91.265625 -50.484375 L 91.265625 0 L 64.828125 0 L 64.828125 -43.3125 C 64.828125 -47.300781 63.554688 -50.785156 61.015625 -53.765625 C 58.472656 -56.753906 55.164062 -58.25 51.09375 -58.25 C 47.101562 -58.25 43.488281 -56.707031 40.25 -53.625 C 37.019531 -50.539062 35.40625 -47.101562 35.40625 -43.3125 L 35.40625 0 Z M 8.96875 0 "/></g></g><g style="fill:#000000;fill-opacity:1;"><g transform="translate(810.754624, 444.476315)"><path style="stroke:none" d="M 11.5 -119.34375 C 14.582031 -122.4375 18.265625 -123.984375 22.546875 -123.984375 C 26.835938 -123.984375 30.523438 -122.4375 33.609375 -119.34375 C 36.691406 -116.257812 38.234375 -112.578125 38.234375 -108.296875 C 38.234375 -104.015625 36.691406 -100.328125 33.609375 -97.234375 C 30.523438 -94.148438 26.835938 -92.609375 22.546875 -92.609375 C 18.265625 -92.609375 14.582031 -94.148438 11.5 -97.234375 C 8.414062 -100.328125 6.875 -104.015625 6.875 -108.296875 C 6.875 -112.578125 8.414062 -116.257812 11.5 -119.34375 Z M 8.96875 -76.625 L 8.96875 0 L 35.40625 0 L 35.40625 -76.625 Z M 8.96875 -76.625 "/></g></g><g style="fill:#000000;fill-opacity:1;"><g transform="translate(848.394857, 444.476315)"><path style="stroke:none" d="M 8.96875 0 L 8.96875 -76.625 L 35.40625 -76.625 L 35.40625 -68.5625 L 35.703125 -68.5625 C 42.566406 -75.4375 49.882812 -78.875 57.65625 -78.875 C 61.4375 -78.875 65.191406 -78.375 68.921875 -77.375 C 72.660156 -76.375 76.25 -74.828125 79.6875 -72.734375 C 83.125 -70.648438 85.910156 -67.691406 88.046875 -63.859375 C 90.191406 -60.023438 91.265625 -55.566406 91.265625 -50.484375 L 91.265625 0 L 64.828125 0 L 64.828125 -43.3125 C 64.828125 -47.300781 63.554688 -50.785156 61.015625 -53.765625 C 58.472656 -56.753906 55.164062 -58.25 51.09375 -58.25 C 47.101562 -58.25 43.488281 -56.707031 40.25 -53.625 C 37.019531 -50.539062 35.40625 -47.101562 35.40625 -43.3125 L 35.40625 0 Z M 8.96875 0 "/></g></g><g style="fill:#000000;fill-opacity:1;"><g transform="translate(939.658583, 444.476315)"><path style="stroke:none" d="M 5.53125 18.828125 L 27.1875 8.21875 C 31.164062 14.789062 38.085938 18.078125 47.953125 18.078125 C 52.535156 18.078125 56.789062 16.609375 60.71875 13.671875 C 64.65625 10.734375 66.625 6.226562 66.625 0.15625 L 66.625 -5.53125 C 61.9375 -0.351562 53.570312 2.234375 41.53125 2.234375 C 30.476562 2.234375 21.363281 -1.671875 14.1875 -9.484375 C 7.019531 -17.304688 3.4375 -26.890625 3.4375 -38.234375 C 3.4375 -49.585938 7.019531 -59.195312 14.1875 -67.0625 C 21.363281 -74.9375 30.476562 -78.875 41.53125 -78.875 C 51.382812 -78.875 59.597656 -75.835938 66.171875 -69.765625 L 66.625 -69.765625 L 66.625 -76.625 L 93.0625 -76.625 L 93.0625 2.09375 C 93.0625 14.539062 88.925781 24.148438 80.65625 30.921875 C 72.394531 37.691406 61.492188 41.078125 47.953125 41.078125 C 26.046875 41.078125 11.90625 33.660156 5.53125 18.828125 Z M 36.671875 -51.234375 C 33.234375 -47.847656 31.515625 -43.515625 31.515625 -38.234375 C 31.515625 -32.960938 33.15625 -28.65625 36.4375 -25.3125 C 39.726562 -21.976562 44.0625 -20.3125 49.4375 -20.3125 C 54.613281 -20.3125 58.867188 -22.003906 62.203125 -25.390625 C 65.546875 -28.773438 67.21875 -33.054688 67.21875 -38.234375 C 67.21875 -43.515625 65.5 -47.847656 62.0625 -51.234375 C 58.625 -54.617188 54.414062 -56.3125 49.4375 -56.3125 C 44.363281 -56.3125 40.109375 -54.617188 36.671875 -51.234375 Z M 36.671875 -51.234375 "/></g></g></g></svg>